<svg id="visual" viewBox="0 0 1800 700" width="1800" height="700" xmlns="http://www.w3.org/2000/svg" xmlns:xlink="http://www.w3.org/1999/xlink" version="1.1"><rect x="0" y="0" width="1800" height="700" fill="#931C1C"></rect><path d="M0 148L200 200L400 172L600 268L800 261L1000 228L1200 157L1400 263L1600 193L1800 159L1800 701L1600 701L1400 701L1200 701L1000 701L800 701L600 701L400 701L200 701L0 701Z" fill="#f5730a"></path><path d="M0 252L200 273L400 302L600 187L800 225L1000 277L1200 175L1400 261L1600 211L1800 224L1800 701L1600 701L1400 701L1200 701L1000 701L800 701L600 701L400 701L200 701L0 701Z" fill="#eb6a0a"></path><path d="M0 228L200 272L400 303L600 242L800 287L1000 239L1200 336L1400 246L1600 249L1800 257L1800 701L1600 701L1400 701L1200 701L1000 701L800 701L600 701L400 701L200 701L0 701Z" fill="#e16209"></path><path d="M0 329L200 272L400 284L600 360L800 367L1000 371L1200 302L1400 344L1600 372L1800 362L1800 701L1600 701L1400 701L1200 701L1000 701L800 701L600 701L400 701L200 701L0 701Z" fill="#d75909"></path><path d="M0 312L200 380L400 366L600 341L800 401L1000 396L1200 360L1400 380L1600 321L1800 347L1800 701L1600 701L1400 701L1200 701L1000 701L800 701L600 701L400 701L200 701L0 701Z" fill="#cd5108"></path><path d="M0 448L200 413L400 375L600 448L800 395L1000 418L1200 432L1400 359L1600 432L1800 380L1800 701L1600 701L1400 701L1200 701L1000 701L800 701L600 701L400 701L200 701L0 701Z" fill="#c34807"></path><path d="M0 480L200 488L400 464L600 405L800 444L1000 490L1200 481L1400 441L1600 487L1800 472L1800 701L1600 701L1400 701L1200 701L1000 701L800 701L600 701L400 701L200 701L0 701Z" fill="#b94007"></path><path d="M0 476L200 447L400 498L600 461L800 477L1000 469L1200 461L1400 468L1600 513L1800 478L1800 701L1600 701L1400 701L1200 701L1000 701L800 701L600 701L400 701L200 701L0 701Z" fill="#af3706"></path><path d="M0 493L200 558L400 540L600 550L800 529L1000 527L1200 488L1400 526L1600 544L1800 495L1800 701L1600 701L1400 701L1200 701L1000 701L800 701L600 701L400 701L200 701L0 701Z" fill="#a52f05"></path><path d="M0 587L200 567L400 573L600 553L800 543L1000 562L1200 552L1400 578L1600 546L1800 562L1800 701L1600 701L1400 701L1200 701L1000 701L800 701L600 701L400 701L200 701L0 701Z" fill="#9b2604"></path><path d="M0 625L200 588L400 614L600 583L800 625L1000 629L1200 615L1400 585L1600 600L1800 600L1800 701L1600 701L1400 701L1200 701L1000 701L800 701L600 701L400 701L200 701L0 701Z" fill="#911e02"></path><path d="M0 624L200 647L400 665L600 648L800 629L1000 648L1200 652L1400 651L1600 654L1800 629L1800 701L1600 701L1400 701L1200 701L1000 701L800 701L600 701L400 701L200 701L0 701Z" fill="#871400"></path></svg>